<svg xmlns="http://www.w3.org/2000/svg" viewBox="0 0 120 120">
  <defs>
    <linearGradient id="grad" x1="0%" y1="0%" x2="100%" y2="100%">
      <stop offset="0%" stop-color="#28a745"/>
      <stop offset="100%" stop-color="#12a254"/>
    </linearGradient>
  </defs>
  <rect width="120" height="120" rx="24" ry="24" fill="url(#grad)"/>
  <path d="M40 30c-2 0-4 2-4 4v38c0 2 2 4 4 4h6v10c0 2 2 4 4 4s4-2 4-4v-10h6c2 0 4-2 4-4V34c0-2-2-4-4-4H40z" fill="#fff"/>
  <path d="M72 28c-3 0-6 3-6 6v52c0 3 3 6 6 6s6-3 6-6V34c0-3-3-6-6-6zm14 7.5c-1.5 0-3 1-3 2.5v39c0 1.5 1.5 2.5 3 2.5s3-1 3-2.5v-39c0-1.5-1.5-2.5-3-2.5z" fill="#fff"/>
</svg>
